#!OML:ASF H:\Terrain\Patient Classification 1\PLAYGROUND\JustinFriday\JustinFriday.ASF
:FULLY-SPECIFIED
:DEGREES
2960
root -1.61973 18.1157 11.3196 398.536 -85.713 -42.1081
lowerback 11.1551 -0.22207 2.49361
upperback -5.27543 0.331736 2.62232
thorax -12.0491 0.0635284 1.39263
lowerneck 13.8987 0.471527 -6.21675
upperneck 5.68761 -0.651496 8.02262
head -0.555925 -0.712033 3.7983
rclavicle -1.13307e-014 -1.59028e-015
rhumerus 50.9896 -3.91679 -67.0234
rradius 90.5629
rwrist 17.5714
rhand -12.5075 -17.1791
rfingers 7.12502
rthumb 13.5679 -406.717
lclavicle -1.13307e-014 -1.59028e-015
lhumerus 50.3832 -0.19828 69.7866
lradius 87.1331
lwrist -24.2012
lhand -9.04737 -6.79719
lfingers 7.12502
lthumb 16.9008 22.4874
rfemur -1.53589 -9.64808 22.7085
rtibia 64.3492
rfoot 12.9188 -5.5124
rtoes -12.0819
lfemur 0.0917219 2.8973 -7.45057
ltibia 67.4323
lfoot 8.07773 3.54795
ltoes 0.376527
2961
root -1.42819 18.206 11.3339 395.402 -85.6899 -38.2823
lowerback 11.1636 -0.280145 2.41872
upperback -5.22062 0.235941 2.5624
thorax -11.9905 0.0224902 1.38819
lowerneck 13.6414 0.451935 -6.21847
upperneck 5.26179 -0.616944 7.895
head -0.654468 -0.67808 3.75186
rclavicle -1.49089e-014 2.06736e-014
rhumerus 51.0756 -3.95096 -66.8791
rradius 90.6613
rwrist 17.0988
rhand -12.4243 -17.0855
rfingers 7.12502
rthumb 13.6481 -406.618
lclavicle -1.49089e-014 2.06736e-014
lhumerus 50.348 -0.274271 69.8247
lradius 87.2838
lwrist -24.2035
lhand -8.9659 -6.5832
lfingers 7.12502
lthumb 16.9793 22.6947
rfemur -1.81079 -9.41231 22.7378
rtibia 62.9282
rfoot 11.8082 -7.82475
rtoes -0.977672
lfemur -0.0743831 2.70931 -7.83894
ltibia 65.9355
lfoot 8.37185 3.31038
ltoes -3.05617
2962
root -1.22578 18.2673 11.3516 392.134 -86.0045 -34.3496
lowerback 11.2022 -0.198422 2.09417
upperback -5.23059 0.280077 2.37868
thorax -12.0236 0.0618951 1.36091
lowerneck 13.8107 0.331419 -5.69771
upperneck 4.54898 -0.649042 7.44039
head -0.913009 -0.672601 3.50067
rclavicle 2.08724e-015 0
rhumerus 50.7837 -4.0122 -66.8867
rradius 90.8436
rwrist 16.9325
rhand -12.7527 -17.135
rfingers 7.12502
rthumb 13.3316 -406.689
lclavicle 2.08724e-015 0
lhumerus 50.2363 -0.566685 69.7589
lradius 87.2833
lwrist -24.5123
lhand -9.29778 -6.7962
lfingers 7.12502
lthumb 16.6598 22.5088
rfemur -1.95494 -9.29703 22.448
rtibia 61.5545
rfoot 11.5676 -7.80171
rtoes -0.138911
lfemur -0.251038 2.75991 -8.48212
ltibia 64.5443
lfoot 8.71798 2.93162
ltoes -6.67206
2963
root -1.03825 18.3447 11.3709 394.32 -86.192 -35.888
lowerback 11.2684 -0.0920208 2.12066
upperback -5.27153 0.426831 2.3319
thorax -12.111 0.126816 1.26485
lowerneck 13.9077 0.336582 -5.327
upperneck 4.04735 -0.550939 7.18865
head -1.09996 -0.60999 3.34299
rclavicle -3.18055e-015 2.3059e-014
rhumerus 50.2481 -4.12065 -66.7683
rradius 91.2663
rwrist 17.0421
rhand -13.0103 -17.9001
rfingers 7.12502
rthumb 13.0833 -407.47
lclavicle -3.18055e-015 2.3059e-014
lhumerus 50.1534 -0.811516 69.8865
lradius 87.1849
lwrist -24.7841
lhand -9.01541 -7.88707
lfingers 7.12502
lthumb 16.9316 21.3949
rfemur -2.24239 -8.68927 22.6901
rtibia 60.2391
rfoot 10.5349 -9.10152
rtoes 4.31946
lfemur -0.270793 2.81031 -8.68416
ltibia 63.0221
lfoot 8.48845 3.53231
ltoes -2.86887
2964
root -0.848983 18.4126 11.3915 397.516 -86.2069 -38.4194
lowerback 11.202 -0.0689475 2.20355
upperback -5.21964 0.479863 2.46753
thorax -12.0135 0.151532 1.35368
lowerneck 13.7499 0.48338 -5.11654
upperneck 3.71797 -0.286953 6.86976
head -1.1956 -0.459693 3.17899
rclavicle -1.54058e-015 -2.54444e-014
rhumerus 50.149 -4.11411 -66.3899
rradius 91.5231
rwrist 16.8902
rhand -13.8304 -19.2218
rfingers 7.12502
rthumb 12.2926 -408.84
lclavicle -1.54058e-015 -2.54444e-014
lhumerus 50.1398 -0.731333 70.0656
lradius 87.2478
lwrist -24.8171
lhand -8.4037 -8.93296
lfingers 7.12502
lthumb 17.5204 20.2975
rfemur -2.50634 -8.22073 23.1837
rtibia 58.9282
rfoot 9.60403 -9.87088
rtoes 4.97681
lfemur -0.387832 2.82708 -8.69476
ltibia 61.6047
lfoot 7.94996 4.39857
ltoes 2.0114
2965
root -0.657923 18.4751 11.4134 401.535 -86.1129 -41.7247
lowerback 11.1005 -0.0673182 2.51961
upperback -5.18741 0.536222 2.57544
thorax -11.9156 0.157643 1.28029
lowerneck 13.7306 0.517859 -4.62991
upperneck 3.23326 -0.133179 6.37059
head -1.35453 -0.359931 2.91092
rclavicle -1.3418e-015 7.15625e-015
rhumerus 50.1803 -4.09479 -66.2861
rradius 91.4592
rwrist 16.8323
rhand -14.4798 -19.9526
rfingers 7.12502
rthumb 11.6664 -409.608
lclavicle -1.3418e-015 7.15625e-015
lhumerus 50.0991 -0.779084 70.0648
lradius 87.3574
lwrist -24.9523
lhand -8.36395 -9.16627
lfingers 7.12502
lthumb 17.5586 20.0608
rfemur -2.81978 -7.95764 23.7423
rtibia 57.6733
rfoot 9.31262 -9.89163
rtoes 2.17843
lfemur -0.665493 3.02162 -8.57165
ltibia 60.1971
lfoot 8.06745 4.06956
ltoes -0.0295981
2966
root -0.477153 18.5437 11.4391 403.343 -86.0705 -42.8876
lowerback 11.1471 -0.0279202 2.80879
upperback -5.20722 0.629652 2.48524
thorax -11.9636 0.174617 0.999737
lowerneck 13.0366 0.831577 -5.11761
upperneck 3.47741 0.241271 6.82206
head -1.18438 -0.173257 3.12863
rclavicle -5.46658e-016 -1.59028e-015
rhumerus 49.9636 -4.27696 -66.4681
rradius 91.377
rwrist 16.8771
rhand -13.7123 -19.2385
rfingers 7.12502
rthumb 12.4065 -408.85
lclavicle -5.46658e-016 -1.59028e-015
lhumerus 50.1058 -1.09884 69.8178
lradius 87.3308
lwrist -25.0414
lhand -8.74333 -8.83483
lfingers 7.12502
lthumb 17.1935 20.4245
rfemur -3.01295 -7.68015 23.9447
rtibia 56.5243
rfoot 8.54108 -10.1879
rtoes 2.69382
lfemur -0.913109 3.09278 -8.69297
ltibia 58.7519
lfoot 8.08364 4.17628
ltoes -2.22677
2967
root -0.31119 18.6284 11.4617 397.095 -86.2801 -36.093
lowerback 11.2316 -0.0192682 2.36172
upperback -5.11274 0.566199 2.40508
thorax -11.9082 0.178646 1.17559
lowerneck 13.823 0.481775 -3.4536
upperneck 1.94372 0.0700027 5.42852
head -1.79186 -0.21574 2.37576
rclavicle 7.70291e-015 1.74931e-014
rhumerus 50.0361 -4.40748 -66.3377
rradius 91.2062
rwrist 16.8548
rhand -13.4323 -18.1934
rfingers 7.12502
rthumb 12.6764 -407.789
lclavicle 7.70291e-015 1.74931e-014
lhumerus 50.2279 -1.1628 69.7858
lradius 87.2167
lwrist -25.1725
lhand -9.17773 -8.27315
lfingers 7.12502
lthumb 16.7754 21.0221
rfemur -3.14663 -7.40583 23.4433
rtibia 55.4306
rfoot 6.72699 -10.6388
rtoes 13.8177
lfemur -0.970845 2.74726 -9.494
ltibia 57.2209
lfoot 7.75695 4.86293
ltoes -1.22728
